<svg width="160" height="27" viewBox="0 0 160 27" fill="none" xmlns="http://www.w3.org/2000/svg">
<path d="M15.4106 7.50229C15.389 7.93162 15.2335 8.34341 14.966 8.67989C14.6984 9.01636 14.3322 9.26064 13.9188 9.37844C13.5054 9.49625 13.0655 9.48167 12.6607 9.33676C12.256 9.19185 11.9068 8.92388 11.6621 8.57043V16.6937C11.3976 16.3562 11.0344 16.1097 10.6232 15.9884C10.2119 15.8671 9.77306 15.8771 9.36776 16.017C8.96246 16.1569 8.61089 16.4198 8.36204 16.769C8.11319 17.1181 7.97945 17.5362 7.97945 17.965C7.97945 18.3938 8.11319 18.8119 8.36204 19.161C8.61089 19.5102 8.96246 19.7731 9.36776 19.913C9.77306 20.0529 10.2119 20.0629 10.6232 19.9416C11.0344 19.8203 11.3976 19.5738 11.6621 19.2363V26.6734H8.82633C8.54962 26.6734 8.28187 26.5752 8.0708 26.3963C7.85973 26.2173 7.71904 25.9693 7.6738 25.6963L7.16971 22.6717C7.16651 22.6523 7.15945 22.6338 7.14894 22.6172C7.13843 22.6006 7.12468 22.5862 7.10852 22.575C7.09236 22.5639 7.07411 22.556 7.05487 22.552C7.03562 22.548 7.01577 22.548 6.9965 22.5518L4.18068 23.0959C3.97771 23.1339 3.76901 23.1288 3.56816 23.0807C3.36732 23.0327 3.17884 22.943 3.015 22.8173C2.85117 22.6916 2.71565 22.5328 2.61729 22.3512C2.51893 22.1696 2.45992 21.9694 2.44411 21.7635L2.22205 18.2748L0.603175 18.2504C0.512762 18.2526 0.423045 18.234 0.340991 18.196C0.258937 18.1579 0.186754 18.1015 0.130047 18.031C0.0733397 17.9606 0.0336344 17.878 0.0140144 17.7897C-0.00560567 17.7014 -0.00461251 17.6098 0.0169167 17.522L1.23829 12.4144C1.39236 11.7802 1.41503 11.1213 1.30491 10.478C1.07913 9.18454 1.14103 7.85723 1.4862 6.5904C1.83137 5.32357 2.45133 4.14831 3.30203 3.14816C4.15274 2.148 5.21329 1.3475 6.40833 0.803549C7.60337 0.259594 8.90355 -0.0144643 10.2165 0.000852555H11.6644V6.21874C11.9192 5.85058 12.2871 5.57555 12.7123 5.43534C13.1376 5.29513 13.5969 5.29738 14.0208 5.44175C14.4446 5.58613 14.8098 5.86475 15.061 6.23539C15.3122 6.60603 15.4357 7.04846 15.4129 7.49563L15.4106 7.50229Z" fill="#029FF8"/>
<path d="M22.7432 18.2459L21.1221 18.2703L20.8889 21.7634C20.8736 21.9703 20.8146 22.1717 20.7158 22.3541C20.617 22.5366 20.4806 22.6961 20.3157 22.822C20.1507 22.9479 19.961 23.0374 19.7589 23.0846C19.5569 23.1318 19.3471 23.1356 19.1434 23.0958L16.3254 22.5451C16.3061 22.5412 16.2863 22.5413 16.267 22.5453C16.2478 22.5493 16.2295 22.5571 16.2134 22.5683C16.1972 22.5795 16.1835 22.5938 16.173 22.6104C16.1625 22.627 16.1554 22.6456 16.1522 22.665L15.6481 25.6896C15.6033 25.9624 15.4631 26.2104 15.2524 26.3894C15.0417 26.5683 14.7742 26.6666 14.4978 26.6666H11.662V19.2363C11.3975 19.5737 11.0343 19.8203 10.623 19.9416C10.2118 20.0628 9.77291 20.0528 9.36761 19.9129C8.96231 19.773 8.61075 19.5101 8.3619 19.161C8.11305 18.8118 7.97931 18.3937 7.97931 17.9649C7.97931 17.5362 8.11305 17.1181 8.3619 16.7689C8.61075 16.4197 8.96231 16.1569 9.36761 16.017C9.77291 15.877 10.2118 15.867 10.623 15.9883C11.0343 16.1096 11.3975 16.3561 11.662 16.6936V8.57037C11.9118 8.93092 12.2703 9.20223 12.6852 9.34475C13.1 9.48726 13.5496 9.49353 13.9682 9.36265C14.3869 9.23176 14.7528 8.97056 15.0126 8.61713C15.2724 8.2637 15.4126 7.83651 15.4126 7.39786C15.4126 6.95921 15.2724 6.53202 15.0126 6.17859C14.7528 5.82516 14.3869 5.56395 13.9682 5.43307C13.5496 5.30218 13.1 5.30845 12.6852 5.45097C12.2703 5.59349 11.9118 5.8648 11.662 6.22534V0.000792888H13.1032C14.4165 -0.0167083 15.7174 0.255709 16.9133 0.798627C18.1093 1.34154 19.1707 2.14159 20.022 3.14174C20.8732 4.1419 21.4934 5.31752 21.8382 6.58483C22.1831 7.85213 22.2441 9.1799 22.017 10.4735C21.9069 11.1168 21.9295 11.7757 22.0836 12.4099L23.305 17.5175C23.326 17.6033 23.3274 17.6928 23.3091 17.7792C23.2909 17.8657 23.2533 17.9469 23.1994 18.0169C23.1454 18.0868 23.0764 18.1438 22.9974 18.1834C22.9184 18.223 22.8315 18.2444 22.7432 18.2459Z" fill="#2A73FF"/>
<path d="M33.1896 21.8757V8.89173H35.9016V21.8757H33.1896ZM33.1896 7.11573V3.99573H35.9016V7.11573H33.1896ZM38.5924 21.8757V8.89173H41.1844V11.4357L40.8724 11.0997C41.1924 10.2837 41.7044 9.66773 42.4084 9.25173C43.1124 8.81973 43.9284 8.60373 44.8564 8.60373C45.8164 8.60373 46.6644 8.81173 47.4004 9.22773C48.1364 9.64373 48.7124 10.2197 49.1284 10.9557C49.5444 11.6917 49.7524 12.5397 49.7524 13.4997V21.8757H47.0644V14.2197C47.0644 13.5637 46.9444 13.0117 46.7044 12.5637C46.4644 12.0997 46.1204 11.7477 45.6724 11.5077C45.2404 11.2517 44.7444 11.1237 44.1844 11.1237C43.6244 11.1237 43.1204 11.2517 42.6724 11.5077C42.2404 11.7477 41.9044 12.0997 41.6644 12.5637C41.4244 13.0277 41.3044 13.5797 41.3044 14.2197V21.8757H38.5924ZM52.1749 21.8757V8.89173H54.7669V11.4357L54.4549 11.0997C54.7749 10.2837 55.2869 9.66773 55.9909 9.25173C56.6949 8.81973 57.5109 8.60373 58.4389 8.60373C59.3989 8.60373 60.2469 8.81173 60.9829 9.22773C61.7189 9.64373 62.2949 10.2197 62.7109 10.9557C63.1269 11.6917 63.3349 12.5397 63.3349 13.4997V21.8757H60.6469V14.2197C60.6469 13.5637 60.5269 13.0117 60.2869 12.5637C60.0469 12.0997 59.7029 11.7477 59.2549 11.5077C58.8229 11.2517 58.3269 11.1237 57.7669 11.1237C57.2069 11.1237 56.7029 11.2517 56.2549 11.5077C55.8229 11.7477 55.4869 12.0997 55.2469 12.5637C55.0069 13.0277 54.8869 13.5797 54.8869 14.2197V21.8757H52.1749ZM71.8534 22.1637C70.5574 22.1637 69.4054 21.8677 68.3974 21.2757C67.4054 20.6677 66.6294 19.8517 66.0694 18.8277C65.5094 17.7877 65.2294 16.6277 65.2294 15.3477C65.2294 14.0357 65.5094 12.8757 66.0694 11.8677C66.6454 10.8597 67.4134 10.0677 68.3734 9.49173C69.3334 8.89973 70.4214 8.60373 71.6374 8.60373C72.6134 8.60373 73.4854 8.77173 74.2534 9.10773C75.0214 9.44373 75.6694 9.90773 76.1974 10.4997C76.7254 11.0757 77.1254 11.7397 77.3974 12.4917C77.6854 13.2437 77.8294 14.0437 77.8294 14.8917C77.8294 15.0997 77.8214 15.3157 77.8054 15.5397C77.7894 15.7637 77.7574 15.9717 77.7094 16.1637H67.3654V14.0037H76.1734L74.8774 14.9877C75.0374 14.2037 74.9814 13.5077 74.7094 12.8997C74.4534 12.2757 74.0534 11.7877 73.5094 11.4357C72.9814 11.0677 72.3574 10.8837 71.6374 10.8837C70.9174 10.8837 70.2774 11.0677 69.7174 11.4357C69.1574 11.7877 68.7254 12.2997 68.4214 12.9717C68.1174 13.6277 67.9974 14.4277 68.0614 15.3717C67.9814 16.2517 68.1014 17.0197 68.4214 17.6757C68.7574 18.3317 69.2214 18.8437 69.8134 19.2117C70.4214 19.5797 71.1094 19.7637 71.8774 19.7637C72.6614 19.7637 73.3254 19.5877 73.8694 19.2357C74.4294 18.8837 74.8694 18.4277 75.1894 17.8677L77.3974 18.9477C77.1414 19.5557 76.7414 20.1077 76.1974 20.6037C75.6694 21.0837 75.0294 21.4677 74.2774 21.7557C73.5414 22.0277 72.7334 22.1637 71.8534 22.1637ZM79.9962 21.8757V8.89173H82.5882V11.5077L82.3482 11.1237C82.6362 10.2757 83.1002 9.66773 83.7402 9.29973C84.3802 8.91573 85.1482 8.72373 86.0442 8.72373H86.8362V11.1957H85.7082C84.8122 11.1957 84.0842 11.4757 83.5242 12.0357C82.9802 12.5797 82.7082 13.3637 82.7082 14.3877V21.8757H79.9962ZM91.3555 21.8757L86.8915 8.89173H89.7715L93.1795 19.2357H92.1715L95.6515 8.89173H98.1235L101.579 19.2357H100.571L104.003 8.89173H106.883L102.395 21.8757H99.9475L96.4435 11.2917H97.3315L93.8275 21.8757H91.3555ZM114.292 22.1637C113.044 22.1637 111.9 21.8677 110.86 21.2757C109.836 20.6837 109.02 19.8757 108.412 18.8517C107.804 17.8277 107.5 16.6677 107.5 15.3717C107.5 14.0597 107.804 12.8997 108.412 11.8917C109.02 10.8677 109.836 10.0677 110.86 9.49173C111.884 8.89973 113.028 8.60373 114.292 8.60373C115.572 8.60373 116.716 8.89973 117.724 9.49173C118.748 10.0677 119.556 10.8677 120.148 11.8917C120.756 12.8997 121.06 14.0597 121.06 15.3717C121.06 16.6837 120.756 17.8517 120.148 18.8757C119.54 19.8997 118.724 20.7077 117.7 21.2997C116.676 21.8757 115.54 22.1637 114.292 22.1637ZM114.292 19.6437C115.06 19.6437 115.74 19.4597 116.332 19.0917C116.924 18.7237 117.388 18.2197 117.724 17.5797C118.076 16.9237 118.252 16.1877 118.252 15.3717C118.252 14.5557 118.076 13.8277 117.724 13.1877C117.388 12.5477 116.924 12.0437 116.332 11.6757C115.74 11.3077 115.06 11.1237 114.292 11.1237C113.54 11.1237 112.86 11.3077 112.252 11.6757C111.66 12.0437 111.188 12.5477 110.836 13.1877C110.5 13.8277 110.332 14.5557 110.332 15.3717C110.332 16.1877 110.5 16.9237 110.836 17.5797C111.188 18.2197 111.66 18.7237 112.252 19.0917C112.86 19.4597 113.54 19.6437 114.292 19.6437ZM123.228 21.8757V8.89173H125.82V11.5077L125.58 11.1237C125.868 10.2757 126.332 9.66773 126.972 9.29973C127.612 8.91573 128.38 8.72373 129.276 8.72373H130.068V11.1957H128.94C128.044 11.1957 127.316 11.4757 126.756 12.0357C126.212 12.5797 125.94 13.3637 125.94 14.3877V21.8757H123.228ZM131.443 21.8757V3.70773H134.155V15.8757L133.099 15.6117L139.603 8.89173H142.987L138.091 14.0997L143.203 21.8757H140.083L135.523 14.9877L137.131 14.7717L133.291 18.8517L134.155 17.0517V21.8757H131.443ZM149.381 22.1637C148.053 22.1637 146.885 21.8357 145.877 21.1797C144.885 20.5237 144.189 19.6437 143.789 18.5397L145.877 17.5557C146.229 18.2917 146.709 18.8757 147.317 19.3077C147.941 19.7397 148.629 19.9557 149.381 19.9557C150.021 19.9557 150.541 19.8117 150.941 19.5237C151.341 19.2357 151.541 18.8437 151.541 18.3477C151.541 18.0277 151.453 17.7717 151.277 17.5797C151.101 17.3717 150.877 17.2037 150.605 17.0757C150.349 16.9477 150.085 16.8517 149.813 16.7877L147.773 16.2117C146.653 15.8917 145.813 15.4117 145.253 14.7717C144.709 14.1157 144.437 13.3557 144.437 12.4917C144.437 11.7077 144.637 11.0277 145.037 10.4517C145.437 9.85973 145.989 9.40373 146.693 9.08373C147.397 8.76373 148.189 8.60373 149.069 8.60373C150.253 8.60373 151.309 8.89973 152.237 9.49173C153.165 10.0677 153.821 10.8757 154.205 11.9157L152.117 12.8997C151.861 12.2757 151.453 11.7797 150.893 11.4117C150.349 11.0437 149.733 10.8597 149.045 10.8597C148.453 10.8597 147.981 11.0037 147.629 11.2917C147.277 11.5637 147.101 11.9237 147.101 12.3717C147.101 12.6757 147.181 12.9317 147.341 13.1397C147.501 13.3317 147.709 13.4917 147.965 13.6197C148.221 13.7317 148.485 13.8277 148.757 13.9077L150.869 14.5317C151.941 14.8357 152.765 15.3157 153.341 15.9717C153.917 16.6117 154.205 17.3797 154.205 18.2757C154.205 19.0437 153.997 19.7237 153.581 20.3157C153.181 20.8917 152.621 21.3477 151.901 21.6837C151.181 22.0037 150.341 22.1637 149.381 22.1637Z" fill="white"/>
</svg>
