<svg width="160" height="28" viewBox="0 0 160 28" fill="none" xmlns="http://www.w3.org/2000/svg">
<path d="M15.4106 8.16562C15.389 8.59495 15.2335 9.00674 14.966 9.34322C14.6984 9.67969 14.3322 9.92397 13.9188 10.0418C13.5054 10.1596 13.0655 10.145 12.6607 10.0001C12.256 9.85518 11.9068 9.58721 11.6621 9.23376V17.357C11.3976 17.0195 11.0344 16.773 10.6232 16.6517C10.2119 16.5304 9.77306 16.5404 9.36776 16.6803C8.96246 16.8203 8.61089 17.0831 8.36204 17.4323C8.11319 17.7815 7.97945 18.1996 7.97945 18.6283C7.97945 19.0571 8.11319 19.4752 8.36204 19.8244C8.61089 20.1735 8.96246 20.4364 9.36776 20.5763C9.77306 20.7162 10.2119 20.7262 10.6232 20.6049C11.0344 20.4837 11.3976 20.2371 11.6621 19.8997V27.3367H8.82633C8.54962 27.3367 8.28187 27.2385 8.0708 27.0596C7.85973 26.8807 7.71904 26.6326 7.6738 26.3596L7.16971 23.335C7.16651 23.3156 7.15945 23.2971 7.14894 23.2805C7.13843 23.2639 7.12468 23.2496 7.10852 23.2384C7.09236 23.2272 7.07411 23.2194 7.05487 23.2154C7.03562 23.2114 7.01577 23.2113 6.9965 23.2151L4.18068 23.7592C3.97771 23.7972 3.76901 23.7921 3.56816 23.7441C3.36732 23.6961 3.17884 23.6063 3.015 23.4806C2.85117 23.3549 2.71565 23.1961 2.61729 23.0145C2.51893 22.8329 2.45992 22.6327 2.44411 22.4268L2.22205 18.9381L0.603175 18.9137C0.512762 18.9159 0.423045 18.8973 0.340991 18.8593C0.258937 18.8213 0.186754 18.7648 0.130047 18.6944C0.0733397 18.6239 0.0336344 18.5413 0.0140144 18.4531C-0.00560567 18.3648 -0.00461251 18.2731 0.0169167 18.1853L1.23829 13.0778C1.39236 12.4436 1.41503 11.7846 1.30491 11.1413C1.07913 9.84787 1.14103 8.52056 1.4862 7.25373C1.83137 5.9869 2.45133 4.81164 3.30203 3.81149C4.15274 2.81133 5.21329 2.01083 6.40833 1.46688C7.60337 0.922924 8.90355 0.648866 10.2165 0.664183H11.6644V6.88207C11.9192 6.51391 12.2871 6.23888 12.7123 6.09867C13.1376 5.95846 13.5969 5.96071 14.0208 6.10508C14.4446 6.24946 14.8098 6.52808 15.061 6.89872C15.3122 7.26936 15.4357 7.71179 15.4129 8.15896L15.4106 8.16562Z" fill="#029FF8"/>
<path d="M22.7432 18.9092L21.1221 18.9336L20.8889 22.4267C20.8736 22.6337 20.8146 22.835 20.7158 23.0175C20.617 23.1999 20.4806 23.3594 20.3157 23.4853C20.1507 23.6112 19.961 23.7007 19.7589 23.7479C19.5569 23.7951 19.3471 23.7989 19.1434 23.7591L16.3254 23.2084C16.3061 23.2046 16.2863 23.2047 16.267 23.2086C16.2478 23.2126 16.2295 23.2205 16.2134 23.2316C16.1972 23.2428 16.1835 23.2572 16.173 23.2738C16.1625 23.2904 16.1554 23.3089 16.1522 23.3283L15.6481 26.3529C15.6033 26.6257 15.4631 26.8737 15.2524 27.0527C15.0417 27.2317 14.7742 27.3299 14.4978 27.33H11.662V19.8996C11.3975 20.2371 11.0343 20.4836 10.623 20.6049C10.2118 20.7262 9.77291 20.7162 9.36761 20.5762C8.96231 20.4363 8.61075 20.1735 8.3619 19.8243C8.11305 19.4751 7.97931 19.057 7.97931 18.6283C7.97931 18.1995 8.11305 17.7814 8.3619 17.4322C8.61075 17.0831 8.96231 16.8202 9.36761 16.6803C9.77291 16.5404 10.2118 16.5304 10.623 16.6516C11.0343 16.7729 11.3975 17.0195 11.662 17.3569V9.2337C11.9118 9.59425 12.2703 9.86556 12.6852 10.0081C13.1 10.1506 13.5496 10.1569 13.9682 10.026C14.3869 9.89509 14.7528 9.63389 15.0126 9.28046C15.2724 8.92703 15.4126 8.49984 15.4126 8.06119C15.4126 7.62254 15.2724 7.19535 15.0126 6.84192C14.7528 6.48849 14.3869 6.22728 13.9682 6.0964C13.5496 5.96551 13.1 5.97179 12.6852 6.1143C12.2703 6.25682 11.9118 6.52813 11.662 6.88867V0.664123H13.1032C14.4165 0.646622 15.7174 0.919039 16.9133 1.46196C18.1093 2.00487 19.1707 2.80492 20.022 3.80507C20.8732 4.80523 21.4934 5.98085 21.8382 7.24816C22.1831 8.51546 22.2441 9.84323 22.017 11.1368C21.9069 11.7801 21.9295 12.4391 22.0836 13.0733L23.305 18.1808C23.326 18.2666 23.3274 18.3561 23.3091 18.4426C23.2909 18.529 23.2533 18.6102 23.1994 18.6802C23.1454 18.7502 23.0764 18.8071 22.9974 18.8467C22.9184 18.8864 22.8315 18.9077 22.7432 18.9092Z" fill="#2A73FF"/>
<path d="M33.1896 22.5391V9.55506H35.9016V22.5391H33.1896ZM33.1896 7.77906V4.65906H35.9016V7.77906H33.1896ZM38.5924 22.5391V9.55506H41.1844V12.0991L40.8724 11.7631C41.1924 10.9471 41.7044 10.3311 42.4084 9.91506C43.1124 9.48306 43.9284 9.26706 44.8564 9.26706C45.8164 9.26706 46.6644 9.47506 47.4004 9.89106C48.1364 10.3071 48.7124 10.8831 49.1284 11.6191C49.5444 12.3551 49.7524 13.2031 49.7524 14.1631V22.5391H47.0644V14.8831C47.0644 14.2271 46.9444 13.6751 46.7044 13.2271C46.4644 12.7631 46.1204 12.4111 45.6724 12.1711C45.2404 11.9151 44.7444 11.7871 44.1844 11.7871C43.6244 11.7871 43.1204 11.9151 42.6724 12.1711C42.2404 12.4111 41.9044 12.7631 41.6644 13.2271C41.4244 13.6911 41.3044 14.2431 41.3044 14.8831V22.5391H38.5924ZM52.1749 22.5391V9.55506H54.7669V12.0991L54.4549 11.7631C54.7749 10.9471 55.2869 10.3311 55.9909 9.91506C56.6949 9.48306 57.5109 9.26706 58.4389 9.26706C59.3989 9.26706 60.2469 9.47506 60.9829 9.89106C61.7189 10.3071 62.2949 10.8831 62.7109 11.6191C63.1269 12.3551 63.3349 13.2031 63.3349 14.1631V22.5391H60.6469V14.8831C60.6469 14.2271 60.5269 13.6751 60.2869 13.2271C60.0469 12.7631 59.7029 12.4111 59.2549 12.1711C58.8229 11.9151 58.3269 11.7871 57.7669 11.7871C57.2069 11.7871 56.7029 11.9151 56.2549 12.1711C55.8229 12.4111 55.4869 12.7631 55.2469 13.2271C55.0069 13.6911 54.8869 14.2431 54.8869 14.8831V22.5391H52.1749ZM71.8534 22.8271C70.5574 22.8271 69.4054 22.5311 68.3974 21.9391C67.4054 21.3311 66.6294 20.5151 66.0694 19.4911C65.5094 18.4511 65.2294 17.2911 65.2294 16.0111C65.2294 14.6991 65.5094 13.5391 66.0694 12.5311C66.6454 11.5231 67.4134 10.7311 68.3734 10.1551C69.3334 9.56306 70.4214 9.26706 71.6374 9.26706C72.6134 9.26706 73.4854 9.43506 74.2534 9.77106C75.0214 10.1071 75.6694 10.5711 76.1974 11.1631C76.7254 11.7391 77.1254 12.4031 77.3974 13.1551C77.6854 13.9071 77.8294 14.7071 77.8294 15.5551C77.8294 15.7631 77.8214 15.9791 77.8054 16.2031C77.7894 16.4271 77.7574 16.6351 77.7094 16.8271H67.3654V14.6671H76.1734L74.8774 15.6511C75.0374 14.8671 74.9814 14.1711 74.7094 13.5631C74.4534 12.9391 74.0534 12.4511 73.5094 12.0991C72.9814 11.7311 72.3574 11.5471 71.6374 11.5471C70.9174 11.5471 70.2774 11.7311 69.7174 12.0991C69.1574 12.4511 68.7254 12.9631 68.4214 13.6351C68.1174 14.2911 67.9974 15.0911 68.0614 16.0351C67.9814 16.9151 68.1014 17.6831 68.4214 18.3391C68.7574 18.9951 69.2214 19.5071 69.8134 19.8751C70.4214 20.2431 71.1094 20.4271 71.8774 20.4271C72.6614 20.4271 73.3254 20.2511 73.8694 19.8991C74.4294 19.5471 74.8694 19.0911 75.1894 18.5311L77.3974 19.6111C77.1414 20.2191 76.7414 20.7711 76.1974 21.2671C75.6694 21.7471 75.0294 22.1311 74.2774 22.4191C73.5414 22.6911 72.7334 22.8271 71.8534 22.8271ZM79.9962 22.5391V9.55506H82.5882V12.1711L82.3482 11.7871C82.6362 10.9391 83.1002 10.3311 83.7402 9.96306C84.3802 9.57906 85.1482 9.38706 86.0442 9.38706H86.8362V11.8591H85.7082C84.8122 11.8591 84.0842 12.1391 83.5242 12.6991C82.9802 13.2431 82.7082 14.0271 82.7082 15.0511V22.5391H79.9962ZM91.3555 22.5391L86.8915 9.55506H89.7715L93.1795 19.8991H92.1715L95.6515 9.55506H98.1235L101.579 19.8991H100.571L104.003 9.55506H106.883L102.395 22.5391H99.9475L96.4435 11.9551H97.3315L93.8275 22.5391H91.3555ZM114.292 22.8271C113.044 22.8271 111.9 22.5311 110.86 21.9391C109.836 21.3471 109.02 20.5391 108.412 19.5151C107.804 18.4911 107.5 17.3311 107.5 16.0351C107.5 14.7231 107.804 13.5631 108.412 12.5551C109.02 11.5311 109.836 10.7311 110.86 10.1551C111.884 9.56306 113.028 9.26706 114.292 9.26706C115.572 9.26706 116.716 9.56306 117.724 10.1551C118.748 10.7311 119.556 11.5311 120.148 12.5551C120.756 13.5631 121.06 14.7231 121.06 16.0351C121.06 17.3471 120.756 18.5151 120.148 19.5391C119.54 20.5631 118.724 21.3711 117.7 21.9631C116.676 22.5391 115.54 22.8271 114.292 22.8271ZM114.292 20.3071C115.06 20.3071 115.74 20.1231 116.332 19.7551C116.924 19.3871 117.388 18.8831 117.724 18.2431C118.076 17.5871 118.252 16.8511 118.252 16.0351C118.252 15.2191 118.076 14.4911 117.724 13.8511C117.388 13.2111 116.924 12.7071 116.332 12.3391C115.74 11.9711 115.06 11.7871 114.292 11.7871C113.54 11.7871 112.86 11.9711 112.252 12.3391C111.66 12.7071 111.188 13.2111 110.836 13.8511C110.5 14.4911 110.332 15.2191 110.332 16.0351C110.332 16.8511 110.5 17.5871 110.836 18.2431C111.188 18.8831 111.66 19.3871 112.252 19.7551C112.86 20.1231 113.54 20.3071 114.292 20.3071ZM123.228 22.5391V9.55506H125.82V12.1711L125.58 11.7871C125.868 10.9391 126.332 10.3311 126.972 9.96306C127.612 9.57906 128.38 9.38706 129.276 9.38706H130.068V11.8591H128.94C128.044 11.8591 127.316 12.1391 126.756 12.6991C126.212 13.2431 125.94 14.0271 125.94 15.0511V22.5391H123.228ZM131.443 22.5391V4.37106H134.155V16.5391L133.099 16.2751L139.603 9.55506H142.987L138.091 14.7631L143.203 22.5391H140.083L135.523 15.6511L137.131 15.4351L133.291 19.5151L134.155 17.7151V22.5391H131.443ZM149.381 22.8271C148.053 22.8271 146.885 22.4991 145.877 21.8431C144.885 21.1871 144.189 20.3071 143.789 19.2031L145.877 18.2191C146.229 18.9551 146.709 19.5391 147.317 19.9711C147.941 20.4031 148.629 20.6191 149.381 20.6191C150.021 20.6191 150.541 20.4751 150.941 20.1871C151.341 19.8991 151.541 19.5071 151.541 19.0111C151.541 18.6911 151.453 18.4351 151.277 18.2431C151.101 18.0351 150.877 17.8671 150.605 17.7391C150.349 17.6111 150.085 17.5151 149.813 17.4511L147.773 16.8751C146.653 16.5551 145.813 16.0751 145.253 15.4351C144.709 14.7791 144.437 14.0191 144.437 13.1551C144.437 12.3711 144.637 11.6911 145.037 11.1151C145.437 10.5231 145.989 10.0671 146.693 9.74706C147.397 9.42706 148.189 9.26706 149.069 9.26706C150.253 9.26706 151.309 9.56306 152.237 10.1551C153.165 10.7311 153.821 11.5391 154.205 12.5791L152.117 13.5631C151.861 12.9391 151.453 12.4431 150.893 12.0751C150.349 11.7071 149.733 11.5231 149.045 11.5231C148.453 11.5231 147.981 11.6671 147.629 11.9551C147.277 12.2271 147.101 12.5871 147.101 13.0351C147.101 13.3391 147.181 13.5951 147.341 13.8031C147.501 13.9951 147.709 14.1551 147.965 14.2831C148.221 14.3951 148.485 14.4911 148.757 14.5711L150.869 15.1951C151.941 15.4991 152.765 15.9791 153.341 16.6351C153.917 17.2751 154.205 18.0431 154.205 18.9391C154.205 19.7071 153.997 20.3871 153.581 20.9791C153.181 21.5551 152.621 22.0111 151.901 22.3471C151.181 22.6671 150.341 22.8271 149.381 22.8271Z" fill="#171718"/>
</svg>
